<svg xmlns="http://www.w3.org/2000/svg" width="400" height="250" viewBox="0 0 400 250">
  <g fill="#151514" fill-rule="evenodd" transform="translate(89 33)">
    <path d="M188.09505 184C197.057144 184 204.576469 177.893937 206.69495 169.639164 206.707669 169.579382 206.718306 169.5173 206.718306 169.454299 206.718306 168.952358 206.308531 168.546069 205.805794 168.546069L198.064469 168.546069C197.697013 168.546069 197.3802 168.762435 197.236594 169.076291L197.234513 169.075142C195.643975 172.516298 192.152563 174.908506 188.09505 174.908506 182.542044 174.908506 178.036831 170.431968 178.036831 164.908552 178.036831 159.386285 182.542044 154.908598 188.09505 154.908598 192.152563 154.908598 195.643975 157.300806 197.234513 160.742421L197.236594 160.740812C197.3802 161.052599 197.697013 161.272184 198.064469 161.272184L205.805794 161.272184C206.308531 161.272184 206.718306 160.865205 206.718306 160.362804 206.718306 160.299803 206.707669 160.241401 206.69495 160.181158 204.57855 151.926385 197.057144 145.818023 188.09505 145.818023 177.493856 145.818023 168.892975 154.367799 168.892975 164.908552 168.892975 175.452294 177.493856 184 188.09505 184zM221.085406 146.726942L221.085406 182.181241C221.085406 182.682262 220.675631 183.089471 220.172894 183.089471L212.858456 183.089471C212.353638 183.089471 211.943863 182.682262 211.943863 182.181241L211.943863 146.726942 221.085406 146.726942zM216.51475 134C213.485838 134 211.029269 136.443023 211.029269 139.454667 211.029269 142.46723 213.485838 144.909333 216.51475 144.909333 219.545744 144.909333 222 142.46723 222 139.454667 222 136.443023 219.545744 134 216.51475 134zM130.989713 161.272184C132.592738 155.508259 137.902931 151.27269 144.209813 151.27269 150.516925 151.27269 155.822725 155.508259 157.425981 161.272184L130.989713 161.272184zM144.209813 145.818023C133.604456 145.818023 125.007738 154.36458 125.007738 164.908552 125.007738 175.451374 133.604456 184 144.209813 184 151.706013 184 158.192575 179.726262 161.354688 173.498105 161.417819 173.374172 161.453894 173.237823 161.453894 173.089747 161.453894 172.586657 161.044119 172.181287 160.5393 172.181287L156.295863 172.181287C155.99385 172.181287 155.7256 172.328443 155.560719 172.555156 153.091663 176.168531 148.93055 178.544873 144.209813 178.544873 137.254506 178.544873 131.513494 173.397395 130.618788 166.726161L162.469775 166.726161C162.959794 166.726161 163.357081 166.342865 163.382288 165.862998 163.399169 165.547072 163.407725 165.228386 163.407725 164.908552 163.407725 154.36458 154.813088 145.818023 144.209813 145.818023zM118.607894 134.90892L114.9516 134.90892C114.4447 134.90892 114.037006 135.316358 114.037006 135.817609L114.037006 182.181241C114.037006 182.682262 114.4447 183.089471 114.9516 183.089471L118.607894 183.089471C119.112713 183.089471 119.523644 182.682262 119.523644 182.181241L119.523644 135.817609C119.523644 135.316358 119.112713 134.90892 118.607894 134.90892zM107.636006 172.181287L103.391644 172.181287C103.095875 172.181287 102.833869 172.322005 102.669219 172.538371 100.204325 176.161173 96.0348875 178.544873 91.30675 178.544873 83.7296125 178.544873 77.5910813 172.43973 77.5910813 164.908552 77.5910813 157.377373 83.7296125 151.27269 91.30675 151.27269 96.0348875 151.27269 100.204325 153.65685 102.669219 157.278732 102.836181 157.496018 103.097956 157.636276 103.391644 157.636276L107.636006 157.636276C108.141981 157.636276 108.551756 157.228147 108.551756 156.727356 108.551756 156.57928 108.5136 156.441781 108.450238 156.318768 105.290438 150.091301 98.7997125 145.818023 91.30675 145.818023 80.7018562 145.818023 72.1062937 154.36458 72.1062937 164.908552 72.1062937 175.451374 80.7018562 184 91.30675 184 98.7997125 184 105.290438 179.726262 108.450238 173.498105 108.5136 173.374172 108.551756 173.237823 108.551756 173.089747 108.551756 172.586657 108.141981 172.181287 107.636006 172.181287zM71.2044188 145.840096C65.6715313 146.099459 61.252575 148.727807 58.390625 152.742182L58.390625 147.634252C58.390625 147.134841 57.98085 146.726942 57.4760313 146.726942L53.819275 146.726942C53.3139938 146.726942 52.905375 147.134841 52.905375 147.634252L52.905375 182.181241C52.905375 182.682262 53.3139938 183.089471 53.819275 183.089471L57.4760313 183.089471C57.98085 183.089471 58.390625 182.682262 58.390625 182.181241L58.390625 164.908552C58.390625 157.683412 64.0435313 151.772101 71.1896187 151.30419 71.6949 151.30419 72.1062937 150.896292 72.1062937 150.393201L72.1062937 146.749016C72.1062937 146.250754 71.7027625 145.849524 71.2044188 145.840096zM47.4187375 182.181241L47.4187375 146.726942 41.9323313 146.726942 41.9323313 182.181241C41.9323313 182.682262 42.3432625 183.089471 42.8476188 183.089471L46.5041438 183.089471C47.0089625 183.089471 47.4187375 182.682262 47.4187375 182.181241zM48.3324063 139.454667C48.3324063 141.462889 46.6965438 143.091035 44.6761125 143.091035 42.6568375 143.091035 41.0193563 141.462889 41.0193563 139.454667 41.0193563 137.446214 42.6568375 135.817609 44.6761125 135.817609 46.6965438 135.817609 48.3324063 137.446214 48.3324063 139.454667zM35.5324875 172.181287L31.28905 172.181287C30.9916625 172.181287 30.7324313 172.322005 30.5640813 172.538371 28.1008062 176.161173 23.9322938 178.544873 19.2018437 178.544873 11.6265563 178.544873 5.48686875 172.43973 5.48686875 164.908552 5.48686875 157.377373 11.6265563 151.27269 19.2018437 151.27269 23.9322938 151.27269 28.1008062 153.65685 30.5657 157.278732 30.7324313 157.496018 30.9944375 157.636276 31.28905 157.636276L35.5324875 157.636276C36.0382313 157.636276 36.4491625 157.228147 36.4491625 156.727356 36.4491625 156.57928 36.4096187 156.441781 36.3488 156.318768 33.1869187 150.091301 26.6959625 145.818023 19.2018437 145.818023 8.59764375 145.818023 0 154.36458 0 164.908552 0 175.451374 8.59764375 184 19.2018437 184 26.6959625 184 33.1869187 179.726262 36.3488 173.498105 36.4096187 173.374172 36.4491625 173.237823 36.4491625 173.089747 36.4491625 172.586657 36.0382313 172.181287 35.5324875 172.181287L35.5324875 172.181287zM110.626261 0C83.3761448 0 60.5088108 18.7100751 54.0729848 44.0053393 54.0295635 44.1895793 54 44.3765967 54 44.572641 54 46.111137 55.2446677 47.3577656 56.7801198 47.3577656L80.3084742 47.3577656C81.428883 47.3577656 82.3871548 46.6874655 82.8299137 45.7310843L82.8336092 45.7320101C87.6679273 35.1863567 98.2858276 27.8556439 110.626261 27.8556439 127.509074 27.8556439 141.202729 41.5785105 141.202729 58.5005786 141.202729 75.4233412 127.509074 89.1462078 110.626261 89.1462078 98.2858276 89.1462078 87.6679273 81.815495 82.8336092 71.2668326L82.8299137 71.2728505C82.3871548 70.3143862 81.428883 69.6452434 80.3084742 69.6452434L56.7801198 69.6452434C55.2446677 69.6452434 54 70.8886315 54 72.4312938 54 72.6215516 54.0295635 72.803477 54.0690584 72.9858653 60.5030367 98.2829812 83.3710636 117 110.626261 117 142.86244 117 169 90.8055245 169 58.5005786 169 26.1923924 142.86244 0 110.626261 0zM96.7258933 58.5005786C96.7258933 50.8101813 102.950387 44.572641 110.626261 44.572641 118.30075 44.572641 124.523165 50.8101813 124.523165 58.5005786 124.523165 66.1916703 118.30075 72.4312938 110.626261 72.4312938 102.950387 72.4312938 96.7258933 66.1916703 96.7258933 58.5005786L96.7258933 58.5005786z"/>
  </g>
</svg>
