<svg xmlns="http://www.w3.org/2000/svg" width="400" height="250" viewBox="0 0 400 250">
  <g fill="none" transform="translate(50 79)">
    <polygon fill="#8C929D" points="210.914 22.158 204.489 22.158 204.519 70.046 230.54 70.046 230.54 64.123 210.943 64.123 210.914 22.158"/>
    <path fill="#8C929D" d="M21.6100196,29.2278978 C19.5292254,31.3893698 16.6534758,32.6035752 13.6532417,32.5874263 C8.76129666,32.5874263 6.78683694,30.1709234 6.78683694,27.0176817 C6.78683694,22.2730845 10.0874263,20.0039293 17.1011788,20.0039293 C18.6205949,20.0098492 20.1374961,20.1280493 21.6394892,20.3575639 L21.6394892,29.2278978 L21.6100196,29.2278978 Z M14.9499018,0.200291128 C9.95556539,0.184949245 5.11500258,1.92713457 1.27603143,5.12180747 L3.54518664,9.07072692 C6.16797642,7.53831041 9.38015717,6.00589391 14.0068762,6.00589391 C19.2819253,6.00589391 21.6100196,8.71709234 21.6100196,13.2554028 L21.6100196,15.5834971 C20.1378704,15.3526283 18.6502532,15.2344071 17.1601179,15.2298625 C5.90275049,15.2298625 0.185658153,19.1787819 0.185658153,27.4302554 C0.185658153,34.827112 4.72396857,38.540275 11.5903733,38.540275 C16.2170923,38.540275 20.6669941,36.4184676 22.1994106,32.9705305 L23.3781925,37.6561886 L27.9165029,37.6561886 L27.9165029,13.1375246 C27.8870334,5.3870334 24.5275049,0.200291128 14.9499018,0.200291128 L14.9499018,0.200291128 Z" transform="translate(233.694 32.417)"/>
    <path fill="#8C929D" d="M12.6925344,43.1198428 C10.2760314,43.1198428 8.15422397,42.8251473 6.56286837,42.0884086 L6.56286837,19.956778 C8.74361493,18.129666 11.4548134,16.8035363 14.9027505,16.8035363 C21.1208251,16.8035363 23.5078585,21.194499 23.5078585,28.2966601 C23.5078585,38.3752456 19.6473477,43.1198428 12.6925344,43.1198428 M15.4037328,10.5265226 C12.0312767,10.5057281 8.81199565,11.9329427 6.56286837,14.4459725 L6.56286837,8.25147348 L6.53339882,0.0589390963 L0.256385069,0.0589390963 L0.285854617,46.7681729 C3.43909627,48.0943026 7.74165029,48.8015717 12.4273084,48.8015717 C24.4214145,48.8015717 30.197446,41.1394892 30.197446,27.9076621 C30.1679764,17.4459725 24.8339882,10.5206287 15.4037328,10.5206287" transform="translate(269.646 22.102)"/>
    <path fill="#8C929D" d="M23.086444,6.13555992 C28.7740668,6.13555992 32.4577603,8.021611 34.8447937,9.93713163 L37.6149312,5.13359528 C33.8722986,1.83300589 28.8035363,0.0648330059 23.3811395,0.0648330059 C9.70726916,0.0648330059 0.129666012,8.40471513 0.129666012,25.2318271 C0.129666012,42.8546169 10.4734774,49.7211214 22.2907662,49.7211214 C27.1799295,49.7322759 32.0245031,48.7913876 36.5540275,46.9508841 L36.4066798,28.1198428 L36.4066798,22.1964637 L18.8605108,22.1964637 L18.8605108,28.1198428 L30.0589391,28.1198428 L30.2062868,42.4125737 C28.7328094,43.1493124 26.1984283,43.7387033 22.7504912,43.7387033 C13.2612967,43.7387033 6.89587426,37.7563851 6.89587426,25.172888 C6.86640472,12.3536346 13.4381139,6.13555992 23.0746562,6.13555992" transform="translate(117.878 21.218)"/>
    <path fill="#8C929D" d="M6.44499018,0.0500982318 L0.167976424,0.0500982318 L0.197445972,8.09528487 L0.197445972,35.8850688 C0.197445972,43.6355599 3.55697446,48.8222684 13.1345776,48.8222684 C14.4296515,48.8255229 15.7221716,48.7071241 16.9950884,48.4685658 L16.9950884,42.8398821 C16.0296183,42.9860454 15.0540343,43.055026 14.0776031,43.046169 C8.80255403,43.046169 6.47445972,40.3349705 6.47445972,35.7966601 L6.47445972,16.6414538 L16.9950884,16.6414538 L16.9950884,11.3958743 L6.48330059,11.3958743 L6.45383104,0.0500982318 L6.44499018,0.0500982318 Z" transform="translate(179.764 22.102)"/>
    <polygon fill="#8C929D" points="163.969 70.046 170.246 70.046 170.246 33.504 163.969 33.504"/>
    <polygon fill="#8C929D" points="163.969 28.465 170.246 28.465 170.246 22.188 163.969 22.188"/>
    <path fill="#FC6D26" d="M99.3123772,52.694499 L93.7396857,35.5667976 L82.7121807,1.59430255 C82.4518472,0.817070305 81.7238968,0.293196908 80.904224,0.293196908 C80.0845512,0.293196908 79.3566007,0.817070305 79.0962672,1.59430255 L68.0746562,35.546169 L31.43222,35.546169 L20.4047151,1.59430255 C20.1443816,0.817070305 19.4164312,0.293196908 18.5967583,0.293196908 C17.7770855,0.293196908 17.0491351,0.817070305 16.7888016,1.59430255 L5.78192534,35.546169 L0.206286837,52.694499 C-0.300599078,54.2562941 0.253384451,55.9669857 1.57956778,56.935167 L49.7504912,91.9449902 L97.9214145,56.935167 C99.2533306,55.9711418 99.8145561,54.2601176 99.3123772,52.694499"/>
    <polygon fill="#E24329" points="18.525 56.549 18.525 56.549 36.837 .18 .206 .18" transform="translate(31.238 35.363)"/>
    <polygon fill="#FC6D26" points="44.151 56.552 25.833 .18 .194 .18" transform="translate(5.6 35.363)"/>
    <path fill="#FCA326" d="M5.77308448,0.200392927 L5.77308448,0.200392927 L0.197445972,17.3280943 C-0.309439942,18.8898894 0.244543587,20.600581 1.57072692,21.5687623 L49.7416503,56.5815324 L5.77308448,0.200392927 Z" transform="translate(0 35.363)"/>
    <path fill="#E24329" d="M0.179764244,35.2691552 L25.8506876,35.2691552 L14.802554,1.3172888 C14.5422205,0.540056552 13.8142701,0.0161831552 12.9945972,0.0161831552 C12.1749244,0.0161831552 11.446974,0.540056552 11.1866405,1.3172888 L0.179764244,35.2691552 Z" transform="translate(5.6 .295)"/>
    <polygon fill="#FC6D26" points=".253 56.552 18.566 .18 44.234 .18" transform="translate(49.509 35.363)"/>
    <path fill="#FCA326" d="M44.2249509,0.200392927 L44.2249509,0.200392927 L49.8035363,17.3280943 C50.3104223,18.8898894 49.7564387,20.600581 48.4302554,21.5687623 L0.256385069,56.5491159 L44.2249509,0.200392927 Z" transform="translate(49.509 35.363)"/>
    <path fill="#E24329" d="M25.6738703,35.2691552 L0,35.2691552 L11.0275049,1.3172888 C11.2878384,0.540056552 12.0157889,0.0161831552 12.8354617,0.0161831552 C13.6551345,0.0161831552 14.383085,0.540056552 14.6434185,1.3172888 L25.6709234,35.2691552 L25.6738703,35.2691552 Z" transform="translate(68.075 .295)"/>
  </g>
</svg>
