<svg xmlns="http://www.w3.org/2000/svg" width="400" height="250" viewBox="0 0 400 250">
  <g fill="none" fill-rule="evenodd" transform="translate(50 91)">
    <path fill="#26468F" fill-rule="nonzero" d="M75.7265625.9375L75.7265625 34.4430804 106.677455 34.4430804C106.677455 34.4430804 109.034598 33.9508929 109.034598 30.6110491 109.034598 27.2712054 106.677455 27.3683036 106.677455 27.3683036L86.7304688 27.3683036 86.7304688 20.8828125 98.9146205 20.8828125C98.9146205 20.8828125 100.978795 20.5881696 100.978795 17.6902902 100.978795 14.7924107 98.5212054 14.3002232 98.5212054 14.3002232L86.6350446 14.3002232 86.6350446 8.01227679 106.774554 8.01227679C106.774554 8.01227679 109.034598 7.61886161 109.034598 4.6640625 109.034598 1.70926339 107.167969.9375 105.989397.9375L75.7265625.9375zM168.970982 12.6294643C168.970982 12.6294643 179.484375 14.3035714 182.924665 14.9882812 186.364955 15.6729911 191.569754 17.2483259 191.569754 24.2243304 191.569754 31.2003348 185.675223 33.65625 181.548549 34.4363839 177.421875 35.2165179 163.861607 36.8922991 156.788504 32.3722098 156.788504 32.3722098 152.563058 29.6936384 152.563058 24.0100446 152.563058 24.0100446 152.268415 22.0546875 159.145647 22.0546875 166.022879 22.0546875 165.532366 24.2243304 165.532366 24.609375 165.532366 24.9944196 165.041853 28.5401786 172.061384 28.5401786 178.694196 28.5401786 179.092634 25.8867187 179.092634 25.297433 179.092634 24.7081473 179.779018 22.3510045 174.375 21.6629464 168.970982 20.9748884 162.192522 19.9888393 160.620536 19.6975446 159.048549 19.40625 152.956473 17.7455357 152.956473 10.8616071 152.956473 3.97767857 158.753906.150669643 170.542969.150669643 182.332031.150669643 186.853795 3.29464286 188.425781 5.75223214 189.997768 8.20982143 190.292411 10.468192 190.099888 11.4441964 189.907366 12.4202009 188.233259 13.016183 183.418527 13.016183 178.603795 13.016183 178.113281 11.9347098 177.818638 10.7561384 177.523996 9.57756696 177.326451 6.72823661 170.452567 6.72823661 163.578683 6.72823661 164.459263 10.1668527 164.556362 10.9520089 164.65346 11.7371652 166.148438 12.1757812 168.970982 12.6294643zM195.967634 5.60491071L195.967634 29.5546875C195.967634 29.5546875 196.302455 34.1969866 201.383371 34.1969866 206.616629 34.1969866 206.800781 30.9542411 206.800781 29.4810268L206.800781 4.87165179C206.800781 4.87165179 206.209821.9375 201.383371.9375 196.55692.9375 195.967634 4.49832589 195.967634 5.60491071zM232.076451.150669643C232.076451.150669643 211.958705-1.64229911 211.884833 17.5613839 211.811384 36.765067 230.969866 35.0758929 232.886719 35.0758929 234.803571 35.0758929 248.87779 35.6651786 252.341518 26.0122768 252.341518 26.0122768 254.921317 21.1573661 252.783482 20.3370536 251.752232 19.5267857 248.288504 18.8638393 243.425223 19.8950893 243.425223 19.8950893 241.731027 20.4107143 241.508371 21.7366071 241.285714 23.0625 239.777344 28.0731027 232.757813 28.0731027 225.738281 28.0731027 223.307478 22.8683036 223.307478 17.7706473 223.307478 12.6729911 225.818638 7.14508929 232.371094 7.14508929 238.923549 7.14508929 240.698103 10.9771205 241.066406 12.4503348 241.43471 13.9235491 241.878348 15.3984375 245.266741 15.6930804 248.655134 15.9877232 251.973214 15.4720982 253.151786 14.5212054 254.330357 13.5703125 252.415179 9.58426339 251.53125 7.88839286 250.647321 6.19252232 246.667969-.634486607 232.076451.150669643zM60.3984375 1.13337054C64.7226562 1.13337054 71.5011161 2.80747768 71.5011161 12.6294643 71.5011161 22.4514509 62.265067 23.0440848 62.265067 23.0440848L45.5625 23.0440848 45.5625 31.7896205C45.5625 32.5747768 43.0078125 34.4430804 39.6662946 34.4430804 36.3247768 34.4430804 34.6540179 31.6908482 34.6540179 31.6908482L34.6540179.9375M45.6579241 7.61886161L45.6579241 16.4614955 56.9581473 16.4614955C56.9581473 16.4614955 60.3967634 16.265625 60.3967634 12.0401786 60.3967634 7.81473214 57.5507813 7.61886161 56.5647321 7.61886161L45.6579241 7.61886161zM139.585379 1.13337054C143.907924 1.13337054 150.688058 2.80747768 150.688058 12.6294643 150.688058 22.4514509 141.452009 23.0440848 141.452009 23.0440848L124.747768 23.0440848 124.747768 31.7896205C124.747768 32.7606027 122.19308 34.4430804 118.853237 34.4430804 115.513393 34.4430804 113.839286 32.0959821 113.839286 31.6908482L113.839286.9375M124.843192 7.61886161L124.843192 16.4614955 136.143415 16.4614955C136.143415 16.4614955 139.582031 16.265625 139.582031 12.0401786 139.582031 7.81473214 136.736049 7.61886161 135.75 7.61886161L124.843192 7.61886161zM277.347656.08203125C277.347656.08203125 292.749442-1.4765625 298.056362 8.98828125 298.056362 8.98828125 299.750558 12.4051339 299.750558 17.7706473 299.750558 23.1361607 297.982701 27.3364955 295.771205 29.4006696 293.55971 31.4648438 290.760603 34.1166295 283.833147 34.7795759 276.905692 35.4425223 269.462612 35.5178571 264.078683 32.2684152 258.694754 29.0189732 256.414621 24.4319196 256.414621 17.5546875 256.414621 10.6774554 258.631138.314732143 277.347656.08203125zM267.972656 17.5697545C267.972656 27.0518973 274.851563 28.2321429 278.686942 28.1333705 282.522321 28.0345982 288.217634 27.0518973 288.217634 16.9319196 288.217634 6.81194196 278.194754 7.0078125 278.194754 7.0078125 275.628348 7.0078125 267.964286 8.08928571 267.964286 17.578125L267.972656 17.5697545z"/>
    <line x1="81.131" x2="68.357" y1="44.478" y2="54.696" stroke="#F8931D" stroke-width="4"/>
    <path stroke="#FFAF3C" stroke-width="4" d="M39.5089286,43.2003348 C39.5708705,43.3962054 60.0083705,55.6791295 60.0083705,55.6791295"/>
    <line x1="27.188" x2="37.996" y1="58.135" y2="45.067" stroke="#099A4B" stroke-width="4"/>
    <line x1="11.171" x2="23.848" y1="32.098" y2="56.956" stroke="#3EC5F4" stroke-width="4"/>
    <circle cx="8.253" cy="25.987" r="8.253" fill="#3EC5F4" fill-rule="nonzero"/>
    <circle cx="25.523" cy="61.15" r="5.89" fill="#099A4B" fill-rule="nonzero"/>
    <circle cx="39.171" cy="43.06" r="4.207" fill="#FCB038" fill-rule="nonzero"/>
    <circle cx="81.253" cy="44.309" r="5.243" fill="#E21F2F" fill-rule="nonzero"/>
    <circle cx="63.557" cy="58.842" r="8.198" fill="#F8931D" fill-rule="nonzero"/>
    <path fill="#3EC5F4" fill-rule="nonzero" d="M114.868862 53.3420759L114.868862 53.6551339C114.862331 55.1864974 115.128189 56.7068193 115.654018 58.1450893 116.690686 61.0541725 118.950294 63.36273 121.836496 64.4614955 123.385603 65.0876116 125.18471 65.4006696 127.233817 65.4006696 130.592076 65.4006696 133.25279 64.6958705 135.21596 63.2862723 137.179129 61.8766741 138.53125 59.921875 139.272321 57.421875 139.272321 57.421875 139.439732 57.1506696 140.276786 57.1506696 141.800223 57.1506696 141.758371 57.421875 141.758371 57.421875 141.013951 60.546875 139.413504 62.9464286 136.957031 64.6205357 134.500558 66.2946429 131.248884 67.1316964 127.202009 67.1316964 124.722098 67.1316964 122.557478 66.7751116 120.708147 66.061942 118.976478 65.4226084 117.398347 64.4267944 116.075893 63.1389509 114.835854 61.9029077 113.88854 60.4047102 113.303571 58.7544643 112.68354 57.0029188 112.374204 55.1565363 112.389509 53.2985491 112.382431 51.4530947 112.703264 49.6210581 113.337054 47.8878348 113.953876 46.1896704 114.923882 44.6416539 116.183036 43.3459821 117.525848 41.9859956 119.136243 40.9194296 120.912388 40.2137277 122.80971 39.4324777 125.041853 39.0418527 127.608817 39.0418527 129.952567 39.0418527 132.029576 39.3895089 133.839844 40.0848214 135.532084 40.7096971 137.076326 41.6787675 138.375 42.9308036 139.573195 44.1150182 140.51065 45.5365956 141.127232 47.1043527 141.764868 48.724744 142.085953 50.4523508 142.073103 52.1936384 142.073103 52.3610491 142.063058 52.5686384 142.041295 52.7946429 142.020986 52.9764458 142.009811 53.1591531 142.007812 53.3420759L114.868862 53.3420759zM139.533482 51.6194196C139.454448 50.1954949 139.144609 48.793867 138.616071 47.469308 138.094967 46.1711805 137.304078 44.9985423 136.295759 44.0290179 135.217603 43.0040461 133.95092 42.1978712 132.565848 41.6551339 131.103795 41.0625 129.435826 40.766183 127.561942 40.766183 125.553013 40.766183 123.786272 41.0708705 122.261719 41.6802455 120.833865 42.2275523 119.523592 43.0423533 118.401228 44.0809152 117.365347 45.0569322 116.54184 46.2360572 115.982143 47.5446429 115.421763 48.838533 115.068122 50.2124229 114.934152 51.6160714L139.533482 51.6194196zM170.397321 47.9648438C170.287897 46.8414892 169.895044 45.7643096 169.25558 44.8342634 168.611881 43.917569 167.776791 43.1515934 166.808036 42.5892857 165.719569 41.9634683 164.542778 41.5057333 163.317522 41.2315848 161.914769 40.9096661 160.479366 40.7517999 159.040179 40.7611607 156.952009 40.7611607 155.103237 41.1004464 153.493862 41.7790179 151.974101 42.3979609 150.597501 43.3221523 149.449219 44.4944196 148.374675 45.6048588 147.531355 46.9176387 146.968192 48.3565848 146.407442 49.7777345 146.120043 51.2919764 146.121094 52.8197545 146.10428 54.5221389 146.36843 56.2156356 146.902902 57.8320313 147.405504 59.3266998 148.234736 60.6906441 149.330357 61.8247768 150.46827 62.9904205 151.849293 63.8907147 153.375 64.4614955 154.984375 65.0876116 156.876674 65.4006696 159.051897 65.4006696 160.521792 65.4144734 161.985148 65.2033256 163.391183 64.7745536 164.646863 64.3900653 165.833516 63.8086051 166.906808 63.0518973 167.906924 62.3441472 168.759817 61.4486095 169.417969 60.4151786 170.070626 59.3898761 170.514383 58.2457803 170.723772 57.0485491 170.723772 57.0485491 170.891183 56.750558 171.810268 56.750558 173.203125 56.750558 173.203125 57.0485491 173.203125 57.0485491 172.97063 58.5755451 172.414086 60.0351164 171.570871 61.3292411 170.74747 62.5792282 169.683217 63.6525874 168.44029 64.4866071 167.119269 65.3671351 165.664719 66.0285512 164.132812 66.4453125 162.474848 66.9069094 160.76119 67.1378757 159.040179 67.1318172 156.299107 67.1318172 153.960938 66.7410714 152.02567 65.9598214 150.090402 65.1785714 148.50279 64.125558 147.262835 62.8007813 146.031653 61.4931632 145.096906 59.9354418 144.522321 58.233817 143.929861 56.49054 143.631151 54.6609421 143.638393 52.8197545 143.625505 50.9969157 143.966638 49.1889122 144.642857 47.4960938 145.307334 45.8391573 146.319499 44.34403 147.611049 43.1116071 149.003423 41.8042356 150.645678 40.7917774 152.439174 40.1350446 154.362165 39.4051339 156.5625 39.0401786 159.040179 39.0401786 160.762946 39.0289389 162.481457 39.2125837 164.162946 39.5876116 165.652412 39.9148343 167.082654 40.4693142 168.40346 41.2315848 169.608821 41.9304494 170.646068 42.8854023 171.441964 44.0290179 172.239651 45.203308 172.732692 46.5575876 172.876674 47.9698661 172.876674 47.9698661 172.054687 48.2561384 171.564174 48.2561384 171.162166 48.2219604 170.768226 48.1236167 170.397321 47.9648438L170.397321 47.9648438zM172.876674 47.9648438C172.876674 47.9648438 172.792969 48.2981771 171.564174 48.2981771 171.160739 48.2608592 170.765072 48.148314 170.392299 47.9648438M172.871652 47.9648438C172.871652 47.9648438 172.787946 48.2981771 171.559152 48.2981771 170.387277 48.2981771 170.387277 47.9648438 170.387277 47.9648438M174.776786 53.0809152C174.762337 51.2324058 175.103345 49.3983506 175.78125 47.6785714 176.449389 46.0001563 177.460975 44.4799265 178.751116 43.2154018 180.134262 41.8774769 181.777638 40.8381155 183.579241 40.1618304 185.493304 39.4129464 187.69029 39.0390625 190.170201 39.0401761 192.650112 39.0412946 194.84654 39.4151786 196.759487 40.1618304 198.561197 40.838896 200.20497 41.8781484 201.589286 43.2154018 202.878366 44.4804639 203.889306 46.0005795 204.557478 47.6785714 205.235383 49.3983506 205.576391 51.2324058 205.561942 53.0809152 205.575145 54.9380107 205.23424 56.7806024 204.557478 58.5100446 203.898397 60.1927867 202.886262 61.7146989 201.589286 62.9732143 200.199205 64.2969833 198.556561 65.3269808 196.759487 66.0016741 194.845424 66.750558 192.648996 67.124442 190.170201 67.1233284 187.691406 67.1222098 185.49442 66.7483259 183.579241 66.0016741 181.782271 65.3277736 180.140024 64.2976683 178.751116 62.9732143 177.453094 61.71523 176.440312 60.1932035 175.78125 58.5100446 175.104487 56.7806024 174.763582 54.9380107 174.776786 53.0809152L174.776786 53.0809152zM177.256138 53.0809152C177.251933 54.6602364 177.539692 56.2267304 178.104911 57.7014509 179.249706 60.7445303 181.618059 63.1681444 184.633929 64.3828125 186.243304 65.0602679 188.092076 65.3995536 190.180246 65.4006724 192.268415 65.4017857 194.117188 65.0625 195.726563 64.3828125 198.742081 63.1676199 201.110252 60.7441913 202.25558 57.7014509 203.387309 54.7256203 203.387309 51.4378841 202.25558 48.4620536 201.109758 45.4192436 198.741835 42.9954617 195.726562 41.7790179 194.116071 41.1004464 192.267299 40.7611607 190.180246 40.7611607 188.093192 40.7611607 186.24442 41.1004464 184.633929 41.7790179 181.618423 42.9951126 179.250379 45.419018 178.104911 48.4620536 177.537147 49.9357387 177.246556 51.5016427 177.247764 53.0809152L177.256138 53.0809152zM207.589286 39.8337054C207.589286 39.8337054 207.589286 39.5390625 208.660714 39.5390625 209.938058 39.5390625 210.055246 39.8337054 210.055246 39.8337054L210.055246 45.1473214 210.185826 45.1473214C210.469411 44.2690919 210.933596 43.4599057 211.548549 42.7717634 212.227763 41.9969087 213.027001 41.3361531 213.915737 40.8147321 214.889613 40.2389865 215.937898 39.7996194 217.03125 39.5089286 218.205223 39.1923535 219.416359 39.0346975 220.632254 39.0401786 222.033185 39.0170343 223.430677 39.1860176 224.785714 39.5424107 225.84099 39.8234601 226.847449 40.2631861 227.770647 40.8465402 228.529121 41.3276821 229.18973 41.9479622 229.717634 42.6746652 230.166512 43.2955428 230.496311 43.9943077 230.69029 44.7354911L230.820871 44.7354911C231.81529 42.8571429 233.145089 41.4391741 234.810268 40.4815848 236.475446 39.5239955 238.671317 39.0457589 241.397879 39.046875 242.811649 39.0336562 244.220339 39.2179129 245.583147 39.594308 246.787669 39.9242753 247.913322 40.4936497 248.892857 41.2684152 249.8344 42.0304139 250.58051 43.0060967 251.069196 44.1143973 251.58817 45.2628348 251.847656 46.6199777 251.847656 48.1858259L251.847656 66.3297991C251.847656 66.3297991 251.750558 66.624442 250.521763 66.624442 249.292969 66.624442 249.381696 66.3297991 249.381696 66.3297991L249.381696 48.1222098C249.381696 46.4179687 249.057478 45.078683 248.40904 44.1043527 247.823429 43.1919246 247.030003 42.4311994 246.09375 41.8844866 245.275026 41.4046748 244.372085 41.0858893 243.433594 40.9453125 242.756813 40.840756 242.07408 40.7792485 241.389509 40.7611607 239.969913 40.7465459 238.557073 40.9584719 237.204241 41.3889509 235.981018 41.7749593 234.853152 42.4150533 233.894531 43.2672991 232.946283 44.1269468 232.202632 45.1880796 231.718192 46.3727679 231.177462 47.7251737 230.91278 49.1720981 230.939732 50.6283482L230.939732 66.3297991C230.939732 66.3297991 230.71875 66.624442 229.707589 66.624442 228.696429 66.624442 228.473772 66.3297991 228.473772 66.3297991L228.473772 48.1222098C228.473772 46.4481027 228.160156 45.1171875 227.532924 44.1294643 226.991455 43.2219161 226.236991 42.4599823 225.334821 41.9095982 224.534827 41.4399598 223.655214 41.1215969 222.739955 40.9704241 222.042901 40.8491252 221.33788 40.7791826 220.63058 40.7611607 219.397214 40.7716447 218.172285 40.9657376 216.996094 41.3370536 215.751448 41.7143834 214.586141 42.3157591 213.557478 43.1116071 212.49719 43.9387908 211.632827 44.9900901 211.026228 46.1902902 210.378906 47.4436384 210.054688 48.9229911 210.053571 50.6283482L210.053571 66.3297991C210.053571 66.3297991 209.886161 66.624442 208.610491 66.624442 207.587612 66.624442 207.587612 66.3297991 207.587612 66.3297991L207.589286 39.8337054zM255.649554 39.8337054C255.649554 39.8337054 255.649554 39.5390625 256.722656 39.5390625 258 39.5390625 258.115513 39.8337054 258.115513 39.8337054L258.115513 45.1473214 258.246094 45.1473214C258.529679 44.2690919 258.993863 43.4599057 259.608817 42.7717634 260.289021 41.9972675 261.088746 41.3365755 261.977679 40.8147321 262.950822 40.2387099 263.998594 39.7993218 265.091518 39.5089286 266.266083 39.1924626 267.477757 39.0348099 268.694196 39.0401786 270.094576 39.0170188 271.491518 39.1860036 272.845982 39.5424107 273.901258 39.8234601 274.907717 40.2631861 275.830915 40.8465402 276.589737 41.3272326 277.250425 41.9475861 277.777902 42.6746652 278.226474 43.2959473 278.556762 43.994546 278.752232 44.7354911L278.881138 44.7354911C279.875558 42.8571429 281.205915 41.4391741 282.87221 40.4815848 284.538504 39.5239955 286.732143 39.0435268 289.453125 39.0401786 290.866901 39.0268503 292.275607 39.211109 293.638393 39.5876116 294.842914 39.9175789 295.968568 40.4869532 296.948103 41.2617188 297.889042 42.0243044 298.635031 42.999829 299.124442 44.1077009 299.643415 45.2561384 299.902902 46.6132813 299.902902 48.1791295L299.902902 66.3297991C299.902902 66.3297991 299.804129 66.624442 298.575335 66.624442 297.34654 66.624442 297.436942 66.3297991 297.436942 66.3297991L297.436942 48.1222098C297.436942 46.4179688 297.112165 45.078683 296.462612 44.1043527 295.880904 43.1932495 295.091454 42.4330591 294.15904 41.8861607 293.340317 41.4063489 292.437375 41.0875634 291.498884 40.9469866 290.822103 40.8424301 290.13937 40.7809226 289.454799 40.7628348 288.035211 40.7483344 286.622389 40.9602576 285.269531 41.390625 284.046651 41.7774206 282.918942 42.4174256 281.959821 43.2689732 281.011488 44.1285454 280.267822 45.189699 279.783482 46.374442 279.242752 47.7268478 278.978071 49.1737722 279.005022 50.6300223L279.005022 66.3314732C279.005022 66.3314732 278.782366 66.6261161 277.771205 66.6261161 276.760045 66.6261161 276.539063 66.3314732 276.539063 66.3314732L276.539063 48.1222098C276.539063 46.4481027 276.225446 45.1171875 275.598214 44.1294643 275.054389 43.2209303 274.296967 42.458911 273.391741 41.9095982 272.591267 41.4396982 271.711057 41.1213244 270.795201 40.9704241 270.098708 40.849135 269.394244 40.7791922 268.6875 40.7611607 267.454124 40.7715202 266.229176 40.965616 265.053013 41.3370536 263.808226 41.7140338 262.642857 42.315441 261.614397 43.1116071 260.553682 43.9383523 259.689233 44.9897556 259.083147 46.1902902 258.433594 47.4436384 258.108817 48.9229911 258.108817 50.6283482L258.108817 66.3297991C258.108817 66.3297991 257.941406 66.624442 256.665737 66.624442 255.642857 66.624442 255.642857 66.3297991 255.642857 66.3297991L255.649554 39.8337054z"/>
    <path fill="#3EC5F4" fill-rule="nonzero" d="M255.669643,39.8337054 L258.132254,39.8337054 L258.132254,45.1473214 L258.262835,45.1473214 C258.546421,44.269453 259.009973,43.4603757 259.623884,42.7717634 C260.30512,41.9963481 261.106653,41.3355638 261.997768,40.8147321 C262.970322,40.2387176 264.01754,39.7993254 265.109933,39.5089286 C266.282789,39.192472 267.492803,39.0348154 268.707589,39.0401786 C270.107418,39.0170031 271.503809,39.1859895 272.857701,39.5424107 C273.911824,39.8237538 274.917136,40.2634718 275.839286,40.8465402 C276.597631,41.3272398 277.257768,41.9476095 277.784598,42.6746652 C278.233476,43.2955428 278.563275,43.9943077 278.757254,44.7354911 L278.886161,44.7354911 C279.88058,42.8571429 281.209821,41.4391741 282.873884,40.4815848 C284.537946,39.5239955 286.731027,39.0435268 289.453125,39.0401786 C290.86692,39.0265431 292.275668,39.2108074 293.638393,39.5876116 C294.841885,39.9176091 295.966437,40.4870024 296.944754,41.2617187 C297.886297,42.0237175 298.632407,42.9994003 299.121094,44.1077009 C299.640067,45.2561384 299.898996,46.6132813 299.897883,48.1791295 L299.897883,66.3297991 L297.435268,66.3297991 L297.435268,48.1222098 C297.435268,46.4179687 297.111049,45.078683 296.462612,44.1043527 C295.881032,43.1937279 295.092247,42.4336267 294.160714,41.8861607 C293.34271,41.4060977 292.440266,41.0872871 291.502232,40.9469866 C290.82602,40.8423753 290.14384,40.7808673 289.459821,40.7628348 C288.040207,40.7479623 286.627327,40.9598943 285.274554,41.390625 C284.052519,41.7770624 282.925832,42.4171345 281.968192,43.2689732 C281.020286,44.1289225 280.276693,45.1899722 279.791853,46.374442 C279.251122,47.7268478 278.986441,49.1737722 279.013393,50.6300223 L279.013393,66.3314732 L276.545759,66.3314732 L276.545759,48.1222098 C276.545759,46.4481027 276.232701,45.1171875 275.606585,44.1294643 C275.062909,43.2213778 274.306149,42.4594455 273.401786,41.9095982 C272.602384,41.4399784 271.723323,41.1216097 270.808594,40.9704241 C270.112101,40.849135 269.407637,40.7791922 268.700893,40.7611607 C267.468624,40.7716533 266.2448,40.9657499 265.069754,41.3370536 C263.826001,41.7140591 262.661736,42.3154824 261.634487,43.1116071 C260.574729,43.9388924 259.710933,44.9901969 259.104911,46.1902902 C258.456473,47.4436384 258.132254,48.9229911 258.132254,50.6283482 L258.132254,66.3297991 L255.669643,66.3297991 L255.669643,39.8337054 Z"/>
  </g>
</svg>
