<svg xmlns="http://www.w3.org/2000/svg" width="400" height="250" viewBox="0 0 400 250">
  <g fill="none" transform="translate(55 62)">
    <polyline fill="#1B73C0" points="46.975 114.949 82.008 92.966 65.076 80.994 46.691 92.343"/>
    <polygon fill="#1B73C0" points="29.892 45.18 48.74 33.565 30.62 21.949 29.602 22.628"/>
    <polyline fill="#61C5FF" points="29.914 102.74 29.914 125.634 64.912 103.759 46.692 92.374 29.914 102.74"/>
    <polygon fill="#61C5FF" points="29.914 45.17 76.672 73.851 65.113 80.992 65.188 103.589 94.961 84.98 94.961 62.936 48.595 33.648"/>
    <polygon fill="#1F8CEB" points="48.598 33.502 65.194 23.323 65.194 0 30.376 21.991"/>
    <polygon fill="#1F8CEB" points="29.914 22.427 .145 41.232 .145 63.278 46.692 92.374 65.113 80.992 18.427 52.147 29.914 45.107"/>
    <path fill="#0E1823" d="M137.274921,87.1214953 C150.007964,87.1214953 156.962165,80.7429907 156.962165,72.4018692 C156.962165,53.5607477 128.361792,59.8411215 128.361792,51.4018692 C128.361792,48.0654206 131.789918,45.6121495 137.176975,45.6121495 C143.053764,45.6121495 148.342874,48.0654206 151.183322,51.3037383 L155.492968,44.0420561 C151.183322,40.2149533 145.11064,37.3691589 137.079028,37.3691589 C125.129558,37.3691589 118.469197,44.0420561 118.469197,51.7943925 C118.469197,69.9485981 147.06957,63.2757009 147.06957,72.5981308 C147.06957,76.3271028 143.935283,78.9766355 137.764654,78.9766355 C131.594025,78.9766355 125.031611,75.7383178 121.701431,72.3037383 L117,79.7616822 C121.897324,84.5700935 129.24331,87.1214953 137.274921,87.1214953 L137.274921,87.1214953 Z M191.543901,87.1214953 C203.787211,87.1214953 212.504448,77.7990654 212.504448,62.1962617 C212.504448,46.5934579 203.787211,37.3691589 191.543901,37.3691589 C185.373272,37.3691589 179.888269,40.3130841 176.362196,45.0233645 L176.362196,38.546729 L166.077815,38.546729 L166.077815,104 L176.362196,104 L176.362196,79.3691589 C180.182109,84.4719626 185.569165,87.1214953 191.543901,87.1214953 L191.543901,87.1214953 Z M188.50756,77.9953271 C183.708182,77.9953271 178.614965,75.0514019 176.362196,71.6168224 L176.362196,52.8738318 C178.614965,49.3411215 183.708182,46.4953271 188.50756,46.4953271 C196.637118,46.4953271 201.828282,53.0700935 201.828282,62.1962617 C201.828282,71.4205607 196.637118,77.9953271 188.50756,77.9953271 L188.50756,77.9953271 Z M231.708586,85.9439252 L231.708586,20.4906542 L221.424206,20.4906542 L221.424206,85.9439252 L231.708586,85.9439252 Z M248.855849,32.7570093 C252.381922,32.7570093 255.222371,29.911215 255.222371,26.3785047 C255.222371,22.8457944 252.381922,20 248.855849,20 C245.427722,20 242.489328,22.8457944 242.489328,26.3785047 C242.489328,29.911215 245.427722,32.7570093 248.855849,32.7570093 L248.855849,32.7570093 Z M254.047013,85.9439252 L254.047013,38.546729 L243.762632,38.546729 L243.762632,85.9439252 L254.047013,85.9439252 Z M280.303298,87.1214953 C285.102675,87.1214953 288.139017,85.8457944 290,84.0794393 L287.551337,76.3271028 C286.767766,77.2102804 284.906783,77.9953271 282.947853,77.9953271 C280.009458,77.9953271 278.442315,75.6401869 278.442315,72.4018692 L278.442315,47.5747664 L288.04107,47.5747664 L288.04107,38.546729 L278.442315,38.546729 L278.442315,25.5934579 L268.157934,25.5934579 L268.157934,38.546729 L260.322215,38.546729 L260.322215,47.5747664 L268.157934,47.5747664 L268.157934,74.953271 C268.157934,82.8037383 272.369632,87.1214953 280.303298,87.1214953 L280.303298,87.1214953 Z"/>
  </g>
</svg>
