<svg xmlns="http://www.w3.org/2000/svg" width="400" height="250" viewBox="0 0 400 250">
  <g fill="none" fill-rule="evenodd" transform="translate(65 -10)">
    <rect width="270" height="270"/>
    <path fill="#1DA1F2" fill-rule="nonzero" d="M103.6935,203.57325 C167.373,203.57325 202.203,150.81525 202.203,105.06375 C202.203,103.56525 202.203,102.0735 202.10175,100.5885 C208.877612,95.6873983 214.726649,89.6189359 219.375,82.66725 C213.056184,85.467162 206.353098,87.3033434 199.4895,88.1145 C206.717022,83.7876289 212.126334,76.9822109 214.71075,68.96475 C207.914563,72.9975734 200.479361,75.8397061 192.726,77.3685 C181.994059,65.9569114 164.941106,63.1638849 151.129458,70.5555895 C137.31781,77.9472941 130.182356,93.6854487 133.72425,108.945 C105.886546,107.549434 79.9502115,94.4009321 62.37,72.77175 C53.1807036,88.5913519 57.8744182,108.829301 73.089,118.989 C67.5792531,118.825701 62.1896358,117.339389 57.375,114.6555 C57.375,114.79725 57.375,114.94575 57.375,115.09425 C57.3795099,131.575003 68.9968225,145.769862 85.15125,149.03325 C80.0541198,150.423345 74.706169,150.626549 69.51825,149.62725 C74.0538985,163.730854 87.0518783,173.392541 101.86425,173.67075 C89.6044615,183.305916 74.4596517,188.536462 58.86675,188.52075 C56.1120991,188.515462 53.3601274,188.348676 50.625,188.02125 C66.4580427,198.181867 84.8806655,203.571339 103.6935,203.54625"/>
  </g>
</svg>
