<svg xmlns="http://www.w3.org/2000/svg" xmlns:xlink="http://www.w3.org/1999/xlink" width="400" height="250" viewBox="0 0 400 250">
  <defs>
    <polygon id="whitesource-a" points=".054 .653 329.386 .653 329.386 78.486 .054 78.486"/>
  </defs>
  <g fill="none" fill-rule="evenodd" transform="translate(35 86)">
    <polyline fill="#252853" points="102.429 55.499 92.892 26.732 99.199 26.732 105 46.078 111.538 26.732 115.199 26.732 121.855 46.078 127.576 26.732 133.883 26.732 124.385 55.499 119.519 55.499 113.408 36.658 107.295 55.499 102.429 55.499"/>
    <path fill="#252853" d="M136.363135 55.4988649L136.363135 25.9139189 141.697541 25.9139189 141.697541 37.0465135C142.825784 35.1396486 145.394432 33.7001351 148.391189 33.7001351 150.689595 33.7001351 152.635703 34.4778649 154.230405 35.9958649 155.827784 37.5147568 156.644757 39.6936486 156.644757 42.5361081L156.644757 55.4988649 151.155162 55.4988649 151.155162 44.0148649C151.155162 40.6274595 149.404378 38.7598378 146.718 38.7598378 143.79973 38.7598378 141.85273 40.9788649 141.85273 44.1317027L141.85273 55.4988649 136.363135 55.4988649M159.810081 30.9352703C158.525757 29.6509459 158.525757 27.3926757 159.810081 26.1475946 161.095297 24.8623784 163.353568 24.8623784 164.637 26.1475946 165.922216 27.3926757 165.922216 29.6509459 164.637 30.9352703 163.353568 32.2195946 161.095297 32.2195946 159.810081 30.9352703"/>
    <polygon fill="#252853" points="159.489 55.499 164.977 55.499 164.977 34.283 159.489 34.283"/>
    <path fill="#252853" d="M185.058649 54.2528919C183.307865 55.4212703 181.244027 56.0036757 178.790432 56.0036757 173.92427 56.0036757 171.394865 53.1237568 171.394865 47.6350541L171.394865 38.8766757 167.931649 38.8766757 167.931649 34.2834324 171.433216 34.2834324 171.433216 26.771027 176.884459 26.771027 176.884459 34.2834324 183.89027 34.2834324 183.89027 38.8766757 176.884459 38.8766757 176.884459 47.2845405C176.884459 49.7755946 177.896757 51.0215676 179.880324 51.0215676 180.932757 51.0215676 182.138595 50.6719459 183.423811 49.9316757L185.058649 54.2528919M191.895892 42.7296486L202.678865 42.7296486C202.17227 39.9665676 200.187811 38.2924865 197.383703 38.2924865 194.620622 38.2924865 192.557676 39.9665676 191.895892 42.7296486zM207.817054 46.8180811L191.895892 46.8180811C192.673622 49.8148378 194.736568 51.3328378 198.08473 51.3328378 200.382243 51.3328378 203.106973 50.4382703 204.937135 49.1922973L207.116027 53.0461622C204.430541 54.9931622 201.355297 55.9662162 197.851946 55.9662162 194.114919 55.9662162 191.272459 54.8745405 189.288 52.7348919 187.301757 50.5934595 186.329595 47.9472162 186.329595 44.871973 186.329595 41.6397568 187.341 38.9926216 189.404838 36.8904324 191.466892 34.7891351 194.114919 33.7375946 197.383703 33.7375946 200.458946 33.7375946 203.028486 34.7115405 205.013838 36.6184054 206.999189 38.5270541 208.010595 41.0957027 208.010595 44.4037297 208.010595 45.144 207.933 45.960973 207.817054 46.8180811L207.817054 46.8180811zM210.493622 49.9709189L212.401378 48.6857027C213.841784 51.8385405 216.488027 53.7079459 219.875432 53.7079459 221.821541 53.7079459 223.417135 53.163 224.624757 52.1114595 225.831486 51.0608108 226.453135 49.7381351 226.453135 48.1407568 226.453135 45.9217297 225.168811 44.4831081 222.678649 43.2371351 222.132811 42.9642162 221.159757 42.4968649 219.719351 41.8734324 218.318189 41.2517838 217.383486 40.8227838 216.878676 40.5507568 213.608108 38.9159189 211.97327 36.6184054 211.97327 33.7001351 211.97327 31.5578108 212.713541 29.7677838 214.231541 28.3666216 215.749541 26.9253243 217.773243 26.2260811 220.225054 26.2260811 223.650811 26.2260811 226.375541 27.6655946 228.361784 30.5080541L226.570865 31.9475676C224.935135 29.6117027 222.833838 28.4433243 220.263405 28.4433243 216.878676 28.4433243 214.464324 30.5080541 214.464324 33.5815135 214.464324 35.5677568 215.632703 37.1633514 217.928432 38.370973 218.434135 38.643 219.485676 39.1487027 221.08127 39.8497297 222.678649 40.5507568 223.767649 41.0564595 224.351838 41.3677297 227.427081 43.0418108 228.984324 45.2608378 228.984324 48.0640541 228.984324 50.399027 228.127216 52.3067838 226.375541 53.7855405 224.662216 55.2259459 222.522568 55.9662162 219.952135 55.9662162 215.90473 55.9662162 212.245297 53.9032703 210.493622 49.9709189M247.900459 51.3328378C249.495162 49.6195135 250.313027 47.5191081 250.313027 45.0655135 250.313027 42.6137027 249.495162 40.5106216 247.900459 38.8365405 246.303081 37.1633514 244.279378 36.3071351 241.825784 36.3071351 239.413216 36.3071351 237.388622 37.1633514 235.753784 38.8766757 234.159081 40.5507568 233.341216 42.6137027 233.341216 45.0655135 233.341216 47.5191081 234.159081 49.6195135 235.753784 51.3328378 237.388622 53.0069189 239.413216 53.864027 241.825784 53.864027 244.279378 53.864027 246.303081 53.0069189 247.900459 51.3328378zM234.079703 37.3185405C236.142649 35.2181351 238.712189 34.1665946 241.825784 34.1665946 244.94027 34.1665946 247.508919 35.2181351 249.572757 37.3185405 251.636595 39.4216216 252.648 41.9911622 252.648 45.0655135 252.648 48.1407568 251.636595 50.7486486 249.572757 52.8508378 247.508919 54.953027 244.94027 56.0036757 241.825784 56.0036757 238.712189 56.0036757 236.142649 54.953027 234.079703 52.8508378 232.016757 50.7486486 231.005351 48.1407568 231.005351 45.0655135 231.005351 41.9911622 232.016757 39.4216216 234.079703 37.3185405L234.079703 37.3185405zM257.129757 53.6687027C255.611757 52.0731081 254.832243 49.9709189 254.832243 47.363027L254.832243 34.6722973 257.169 34.6722973 257.169 47.3237838C257.169 51.3328378 259.543216 53.8247838 263.318595 53.8247838 267.211703 53.8247838 269.507432 51.3328378 269.507432 47.2845405L269.507432 34.6722973 271.845081 34.6722973 271.845081 47.363027C271.845081 52.6572973 268.612865 56.0036757 263.318595 56.0036757 260.749946 56.0036757 258.687892 55.2259459 257.129757 53.6687027M275.401054 55.4988649L275.401054 34.6722973 277.620081 34.6722973 277.620081 38.0195676C278.749216 35.4116757 280.734568 34.1273514 283.654622 34.1273514 284.472486 34.1273514 285.328703 34.2450811 286.22327 34.4778649L285.950351 36.6968919C285.211865 36.4632162 284.472486 36.3463784 283.732216 36.3463784 279.956838 36.3463784 277.737811 39.3047838 277.737811 43.626L277.737811 55.4988649 275.401054 55.4988649M289.958514 52.9302162C287.973162 50.8654865 286.959973 48.2575946 286.959973 45.1047568 286.959973 41.9126757 287.973162 39.3047838 289.995973 37.2418378 292.059811 35.1788919 294.667703 34.1665946 297.821432 34.1665946 301.908081 34.1665946 305.52827 36.2295405 307.124757 39.5384595L305.216108 40.6274595C303.815838 37.9821081 300.97427 36.3071351 297.821432 36.3071351 295.36873 36.3071351 293.304892 37.125 291.709297 38.7990811 290.113703 40.4339189 289.295838 42.5361081 289.295838 45.1047568 289.295838 47.6350541 290.074459 49.7381351 291.631703 51.3720811 293.188054 53.0069189 295.174297 53.8247838 297.588649 53.8247838 300.740595 53.8247838 303.737351 52.0338649 305.100162 49.5026757L307.007027 50.6719459C306.189162 52.2675405 304.906622 53.5518649 303.193297 54.5249189 301.479973 55.4988649 299.611459 55.9662162 297.588649 55.9662162 294.512514 55.9662162 291.942973 54.953027 289.958514 52.9302162"/>
    <mask id="whitesource-b" fill="#fff">
      <use xlink:href="#whitesource-a"/>
    </mask>
    <path fill="#252853" d="M311.753676 43.8587838L326.973811 43.8587838C326.934568 39.2271892 323.937811 36.3071351 319.695081 36.3071351 315.334622 36.3071351 312.221027 39.3047838 311.753676 43.8587838zM329.269541 46.0011081L311.753676 46.0011081C312.103297 50.6327027 315.101838 53.7855405 320.199892 53.7855405 322.885378 53.7855405 325.961514 52.8115946 327.830919 51.2935946L328.920811 53.0845135C326.895324 54.681 323.586405 55.9662162 320.160649 55.9662162 312.493946 55.9662162 309.339324 50.4766216 309.339324 45.0271622 309.339324 41.8734324 310.274027 39.3047838 312.181784 37.2418378 314.088649 35.1788919 316.580595 34.1665946 319.695081 34.1665946 322.496514 34.1665946 324.794919 35.0620541 326.622405 36.8904324 328.452568 38.6822432 329.386378 41.0957027 329.386378 44.1709459 329.386378 44.442973 329.348027 45.0655135 329.269541 46.0011081L329.269541 46.0011081zM77.8327297 39.5696757C77.8327297 61.0624865 60.4096216 78.4864865 38.9159189 78.4864865 17.424 78.4864865 0 61.0624865 0 39.5696757 0 18.075973 17.424.651972973 38.9159189.651972973 60.4096216.651972973 77.8327297 18.075973 77.8327297 39.5696757" mask="url(#whitesource-b)"/>
    <path fill="#EDB63C" d="M56.4460541,35.7711081 C56.3301081,36.2991081 57.8436486,22.3311892 47.058,17.1359189 L47.058,32.9785946 L44.6748649,32.9785946 L44.6748649,13.8608919 L33.1810541,13.8608919 L33.1810541,32.9785946 L30.7756216,32.9785946 L30.7756216,17.1359189 C18.8938378,22.8582973 21.3866757,35.7711081 21.3866757,35.7711081 L18.7805676,35.7711081 L18.7805676,39.4546216 L59.0530541,39.4546216 L59.0530541,35.7711081 L56.4460541,35.7711081"/>
    <path fill="#FFFFFE" d="M59.0530541,50.3999189 L59.0530541,42.9017838 L47.511973,42.9017838 L47.511973,44.8835676 C47.511973,49.6114865 43.6438378,53.4796216 38.9159189,53.4796216 C34.1888919,53.4796216 30.3207568,49.6114865 30.3207568,44.8835676 L30.3207568,42.9017838 L18.7805676,42.9017838 L18.7805676,50.3999189 L23.4674595,50.3999189 L24.9774324,53.7668108 L21.8138919,56.5566486 L27.6040541,62.7133784 L30.9120811,59.3785946 L34.4965946,60.9171081 L34.4965946,65.2784595 L43.3361351,65.2784595 L43.3361351,60.9171081 L46.9206486,59.3785946 L50.2295676,62.7133784 L56.0197297,56.5566486 L52.8552973,53.7668108 L54.3652703,50.3999189 L59.0530541,50.3999189"/>
    <path fill="#FFFFFE" d="M47.511973 43.172027L47.511973 42.9017838 47.5003784 42.9017838C47.5021622 42.9927568 47.511973 43.0810541 47.511973 43.172027M30.3323514 42.9017838L30.3207568 42.9017838 30.3207568 43.172027C30.3207568 43.0810541 30.3296757 42.9927568 30.3323514 42.9017838"/>
  </g>
</svg>
